<!-- Save this as react.svg in src/assets -->
<svg xmlns="http://www.w3.org/2000/svg" viewBox="0 0 841.9 595.3"><g fill="#61DAFB"><path d="M666.3 296.5c0 55.2-66.4 102.4-162.4 118.8 13.5 51.3 12.2 94.6-5.2 116.5-21.4 27.6-75.4 30.1-132.4 14.4-56.9-15.6-115-46.6-157.6-83.5-42.5-36.9-66.5-76.1-66.5-109.1 0-55.2 66.4-102.4 162.4-118.8-13.5-51.3-12.2-94.6 5.2-116.5 21.4-27.6 75.4-30.1 132.4-14.4 56.9 15.6 115 46.6 157.6 83.5 42.5 36.9 66.5 76.1 66.5 109.1zM421 188.2c-65.3 0-118.3 53.2-118.3 118.3 0 65.1 53.2 118.3 118.3 118.3 65.1 0 118.3-53.2 118.3-118.3.1-65.1-53.1-118.3-118.3-118.3z"/></g></svg>
